<svg xmlns="http://www.w3.org/2000/svg" xmlns:xlink="http://www.w3.org/1999/xlink" width="500" zoomAndPan="magnify" viewBox="0 0 375 374.999991" height="500" preserveAspectRatio="xMidYMid meet" version="1.0"><defs><g/><clipPath id="9c9394bee9"><path d="M 0 230 L 369 230 L 369 350.789062 L 0 350.789062 Z M 0 230 " clip-rule="nonzero"/></clipPath><clipPath id="8f5db6c0d3"><path d="M 52.359375 262.402344 L 70.191406 262.402344 L 70.191406 277.265625 L 52.359375 277.265625 Z M 37.5 277.265625 L 85.054688 277.265625 L 85.054688 295.097656 L 37.5 295.097656 Z M 52.359375 295.097656 L 70.191406 295.097656 L 70.191406 309.957031 L 52.359375 309.957031 Z M 52.359375 295.097656 " clip-rule="nonzero"/></clipPath><clipPath id="e1cbfb6f10"><path d="M 289.945312 278.328125 L 337.5 278.328125 L 337.5 294.03125 L 289.945312 294.03125 Z M 289.945312 278.328125 " clip-rule="nonzero"/></clipPath></defs><path fill="#ffffff" d="M 3.5625 234.351562 L 3.5625 293.976562 L 124.4375 293.976562 L 124.4375 234.351562 Z M 124.0625 234.351562 L 124.0625 293.976562 L 244.9375 293.976562 L 244.9375 234.351562 Z M 244.5625 234.351562 L 244.5625 293.976562 L 365.4375 293.976562 L 365.4375 234.351562 Z M 3.5625 293.601562 L 3.5625 346.53125 L 124.4375 346.53125 L 124.4375 293.601562 Z M 244.5625 293.601562 L 244.5625 346.53125 L 365.4375 346.53125 L 365.4375 293.601562 Z M 244.5625 293.601562 " fill-opacity="1" fill-rule="nonzero"/><g fill="#ffffff" fill-opacity="1"><g transform="translate(78.798237, 149.039052)"><g><path d="M 94.890625 -84.84375 C 94.984375 -84.445312 94.941406 -84.078125 94.765625 -83.734375 C 94.597656 -83.398438 94.34375 -83.15625 94 -83 C 91.414062 -82.175781 88.21875 -81.1875 84.40625 -80.03125 C 80.59375 -78.882812 76.410156 -77.628906 71.859375 -76.265625 C 67.359375 -74.890625 62.566406 -73.429688 57.484375 -71.890625 C 52.398438 -70.359375 47.367188 -68.804688 42.390625 -67.234375 C 41.554688 -64.054688 40.632812 -60.253906 39.625 -55.828125 C 38.625 -51.410156 37.535156 -46.585938 36.359375 -41.359375 C 35.191406 -36.128906 33.972656 -30.703125 32.703125 -25.078125 C 31.484375 -19.554688 30.25 -14.007812 29 -8.4375 C 27.75 -2.863281 26.535156 2.5 25.359375 7.65625 C 24.191406 12.820312 23.070312 17.628906 22 22.078125 C 20.289062 29.210938 18.894531 34.585938 17.8125 38.203125 C 17.03125 40.992188 16.382812 42.875 15.875 43.84375 C 15.363281 44.820312 14.765625 45.3125 14.078125 45.3125 C 13.984375 45.3125 13.882812 45.3125 13.78125 45.3125 C 13.25 45.21875 12.847656 44.890625 12.578125 44.328125 C 12.304688 43.765625 12.171875 42.703125 12.171875 41.140625 C 12.171875 39.578125 12.316406 37.207031 12.609375 34.03125 C 12.660156 33.632812 12.832031 33.3125 13.125 33.0625 C 13.414062 32.820312 13.757812 32.726562 14.15625 32.78125 C 14.539062 32.820312 14.851562 32.988281 15.09375 33.28125 C 15.34375 33.582031 15.445312 33.925781 15.40625 34.3125 C 15.300781 35.394531 15.222656 36.375 15.171875 37.25 C 15.859375 34.851562 16.65625 31.859375 17.5625 28.265625 C 18.46875 24.671875 19.429688 20.6875 20.453125 16.3125 C 21.484375 11.9375 22.546875 7.351562 23.640625 2.5625 C 24.742188 -2.226562 25.832031 -7.03125 26.90625 -11.84375 C 27.988281 -16.65625 29.015625 -21.285156 29.984375 -25.734375 C 31.160156 -31.015625 32.296875 -36.132812 33.390625 -41.09375 C 34.492188 -46.0625 35.546875 -50.679688 36.546875 -54.953125 C 37.554688 -59.234375 38.453125 -62.988281 39.234375 -66.21875 C 37.128906 -65.582031 35.070312 -64.945312 33.0625 -64.3125 C 31.0625 -63.675781 29.132812 -63.039062 27.28125 -62.40625 C 21.75 -60.539062 17.332031 -59 14.03125 -57.78125 C 10.738281 -56.5625 8.273438 -55.570312 6.640625 -54.8125 C 5.003906 -54.050781 3.863281 -53.453125 3.21875 -53.015625 C 3.707031 -52.671875 3.90625 -52.207031 3.8125 -51.625 C 3.664062 -50.84375 3.203125 -50.453125 2.421875 -50.453125 C 2.316406 -50.453125 2.21875 -50.472656 2.125 -50.515625 C 1.144531 -50.710938 0.492188 -51.019531 0.171875 -51.4375 C -0.140625 -51.851562 -0.316406 -52.257812 -0.359375 -52.65625 C -0.359375 -53.132812 -0.175781 -53.617188 0.1875 -54.109375 C 0.550781 -54.597656 1.28125 -55.160156 2.375 -55.796875 C 3.476562 -56.429688 5.128906 -57.21875 7.328125 -58.15625 C 11.335938 -59.863281 17.15625 -61.988281 24.78125 -64.53125 C 29.425781 -66.09375 34.410156 -67.703125 39.734375 -69.359375 C 45.066406 -71.023438 50.421875 -72.675781 55.796875 -74.3125 C 61.179688 -75.957031 66.269531 -77.507812 71.0625 -78.96875 C 75.601562 -80.34375 79.765625 -81.601562 83.546875 -82.75 C 87.335938 -83.894531 90.53125 -84.882812 93.125 -85.71875 C 93.46875 -85.8125 93.820312 -85.773438 94.1875 -85.609375 C 94.550781 -85.441406 94.785156 -85.1875 94.890625 -84.84375 Z M 94.890625 -84.84375 "/></g></g></g><g fill="#ffffff" fill-opacity="1"><g transform="translate(123.159894, 149.039052)"><g><path d="M 21.484375 -16.71875 C 21.828125 -16.519531 22.035156 -16.222656 22.109375 -15.828125 C 22.179688 -15.441406 22.117188 -15.078125 21.921875 -14.734375 C 20.992188 -13.273438 19.820312 -11.640625 18.40625 -9.828125 C 16.988281 -8.015625 15.445312 -6.289062 13.78125 -4.65625 C 12.125 -3.019531 10.472656 -1.660156 8.828125 -0.578125 C 7.191406 0.492188 5.691406 1.03125 4.328125 1.03125 C 3.742188 1.03125 3.226562 0.929688 2.78125 0.734375 C 1.125 0.00390625 0.207031 -1.765625 0.03125 -4.578125 C -0.132812 -7.390625 0.441406 -11.363281 1.765625 -16.5 C 1.859375 -16.882812 2.078125 -17.175781 2.421875 -17.375 C 2.765625 -17.570312 3.109375 -17.625 3.453125 -17.53125 C 3.835938 -17.425781 4.128906 -17.203125 4.328125 -16.859375 C 4.523438 -16.523438 4.570312 -16.1875 4.46875 -15.84375 C 3.6875 -12.707031 3.195312 -10.222656 3 -8.390625 C 2.8125 -6.554688 2.773438 -5.175781 2.890625 -4.25 C 3.015625 -3.320312 3.195312 -2.695312 3.4375 -2.375 C 3.6875 -2.0625 3.835938 -1.90625 3.890625 -1.90625 C 4.523438 -1.613281 5.453125 -1.820312 6.671875 -2.53125 C 7.890625 -3.238281 9.253906 -4.285156 10.765625 -5.671875 C 12.285156 -7.066406 13.816406 -8.679688 15.359375 -10.515625 C 16.898438 -12.347656 18.28125 -14.269531 19.5 -16.28125 C 19.75 -16.625 20.054688 -16.832031 20.421875 -16.90625 C 20.785156 -16.976562 21.140625 -16.914062 21.484375 -16.71875 Z M 4.1875 -22.578125 C 3.207031 -22.628906 2.703125 -22.910156 2.671875 -23.421875 C 2.648438 -23.941406 2.867188 -24.46875 3.328125 -25 C 3.796875 -25.539062 4.273438 -25.910156 4.765625 -26.109375 C 5.546875 -26.347656 6.117188 -26.296875 6.484375 -25.953125 C 6.859375 -25.609375 7.03125 -25.164062 7 -24.625 C 6.976562 -24.09375 6.734375 -23.609375 6.265625 -23.171875 C 5.804688 -22.734375 5.113281 -22.535156 4.1875 -22.578125 Z M 4.1875 -22.578125 "/></g></g></g><g fill="#ffffff" fill-opacity="1"><g transform="translate(146.330836, 149.039052)"><g><path d="M 62.40625 -33.875 C 62.445312 -33.53125 62.347656 -33.195312 62.109375 -32.875 C 61.867188 -32.5625 61.550781 -32.382812 61.15625 -32.34375 C 58.175781 -32 55.363281 -31.554688 52.71875 -31.015625 C 50.082031 -30.484375 47.566406 -29.847656 45.171875 -29.109375 C 44.097656 -24.222656 43 -19.296875 41.875 -14.328125 C 40.75 -9.367188 39.671875 -4.566406 38.640625 0.078125 C 37.617188 4.722656 36.675781 9.007812 35.8125 12.9375 C 34.957031 16.875 34.222656 20.257812 33.609375 23.09375 C 33.003906 25.925781 32.582031 28.003906 32.34375 29.328125 C 31.3125 33.972656 29.84375 37.703125 27.9375 40.515625 C 26.03125 43.328125 23.78125 45.050781 21.1875 45.6875 C 20.507812 45.882812 19.800781 45.984375 19.0625 45.984375 C 15.644531 45.984375 12.492188 44.242188 9.609375 40.765625 C 8.046875 38.910156 6.757812 36.503906 5.75 33.546875 C 4.75 30.585938 4.101562 27.273438 3.8125 23.609375 C 3.519531 19.941406 3.65625 16.09375 4.21875 12.0625 C 4.78125 8.03125 5.867188 3.984375 7.484375 -0.078125 C 11.148438 -9.066406 16.988281 -16.492188 25 -22.359375 C 30.132812 -26.078125 36.078125 -29.0625 42.828125 -31.3125 C 43.753906 -35.46875 44.671875 -39.472656 45.578125 -43.328125 C 46.484375 -47.191406 47.328125 -50.738281 48.109375 -53.96875 C 48.929688 -57.488281 49.40625 -60.222656 49.53125 -62.171875 C 49.65625 -64.128906 49.59375 -65.507812 49.34375 -66.3125 C 49.101562 -67.125 48.859375 -67.554688 48.609375 -67.609375 C 48.023438 -67.804688 47.179688 -67.453125 46.078125 -66.546875 C 44.984375 -65.640625 43.847656 -64.367188 42.671875 -62.734375 C 41.503906 -61.097656 40.53125 -59.226562 39.75 -57.125 C 39.351562 -56.09375 39.03125 -54.867188 38.78125 -53.453125 C 38.539062 -52.035156 38.613281 -50.664062 39 -49.34375 C 39.394531 -48.03125 40.375 -47.03125 41.9375 -46.34375 C 42.28125 -46.195312 42.523438 -45.9375 42.671875 -45.5625 C 42.816406 -45.195312 42.816406 -44.847656 42.671875 -44.515625 C 42.523438 -44.171875 42.269531 -43.925781 41.90625 -43.78125 C 41.539062 -43.632812 41.160156 -43.632812 40.765625 -43.78125 C 38.367188 -44.851562 36.84375 -46.660156 36.1875 -49.203125 C 35.53125 -51.742188 35.835938 -54.726562 37.109375 -58.15625 C 37.640625 -59.613281 38.378906 -61.125 39.328125 -62.6875 C 40.285156 -64.257812 41.335938 -65.679688 42.484375 -66.953125 C 43.640625 -68.222656 44.816406 -69.1875 46.015625 -69.84375 C 47.210938 -70.5 48.347656 -70.660156 49.421875 -70.328125 C 52.847656 -69.296875 53.3125 -63.625 50.8125 -53.3125 C 50.082031 -50.28125 49.300781 -46.976562 48.46875 -43.40625 C 47.632812 -39.84375 46.78125 -36.128906 45.90625 -32.265625 C 50.550781 -33.585938 55.535156 -34.539062 60.859375 -35.125 C 61.203125 -35.175781 61.53125 -35.078125 61.84375 -34.828125 C 62.164062 -34.585938 62.351562 -34.269531 62.40625 -33.875 Z M 29.546875 28.75 C 29.835938 27.476562 30.273438 25.472656 30.859375 22.734375 C 31.453125 19.992188 32.164062 16.71875 33 12.90625 C 33.832031 9.09375 34.734375 4.925781 35.703125 0.40625 C 36.679688 -4.113281 37.722656 -8.796875 38.828125 -13.640625 C 39.929688 -18.484375 41.019531 -23.296875 42.09375 -28.078125 C 35.738281 -25.835938 30.445312 -23.085938 26.21875 -19.828125 C 21.988281 -16.578125 18.585938 -13.144531 16.015625 -9.53125 C 13.453125 -5.914062 11.488281 -2.394531 10.125 1.03125 C 8.945312 3.914062 8.039062 7.101562 7.40625 10.59375 C 6.769531 14.09375 6.472656 17.613281 6.515625 21.15625 C 6.566406 24.695312 7.007812 28.019531 7.84375 31.125 C 8.675781 34.226562 9.972656 36.832031 11.734375 38.9375 C 13.097656 40.601562 14.550781 41.773438 16.09375 42.453125 C 17.632812 43.140625 19.113281 43.3125 20.53125 42.96875 C 22.582031 42.476562 24.378906 41.007812 25.921875 38.5625 C 27.460938 36.125 28.671875 32.851562 29.546875 28.75 Z M 29.546875 28.75 "/></g></g></g><g fill="#ffffff" fill-opacity="1"><g transform="translate(208.143668, 149.039052)"><g><path d="M 44.953125 -16.5 C 45.191406 -16.25 45.320312 -15.925781 45.34375 -15.53125 C 45.375 -15.144531 45.242188 -14.804688 44.953125 -14.515625 C 42.648438 -12.171875 40.3125 -10.535156 37.9375 -9.609375 C 35.570312 -8.679688 33.390625 -8.507812 31.390625 -9.09375 C 30.503906 -9.382812 29.570312 -9.867188 28.59375 -10.546875 C 27.613281 -11.234375 26.757812 -12.3125 26.03125 -13.78125 C 25.300781 -11.039062 24.46875 -8.425781 23.53125 -5.9375 C 22.507812 -3.25 21.59375 -1.257812 20.78125 0.03125 C 19.976562 1.332031 19.257812 2.1875 18.625 2.59375 C 17.988281 3.007812 17.425781 3.21875 16.9375 3.21875 C 16.0625 3.21875 15.378906 2.890625 14.890625 2.234375 C 14.398438 1.578125 14.03125 0.859375 13.78125 0.078125 C 13.539062 -0.703125 13.367188 -1.316406 13.265625 -1.765625 C 13.117188 -2.585938 13 -3.5625 12.90625 -4.6875 C 11.238281 -2.101562 9.90625 -0.164062 8.90625 1.125 C 7.90625 2.425781 7.015625 3.445312 6.234375 4.1875 C 5.597656 4.820312 5.007812 5.25 4.46875 5.46875 C 3.9375 5.6875 3.445312 5.796875 3 5.796875 C 2.664062 5.796875 2.347656 5.742188 2.046875 5.640625 C 1.753906 5.546875 1.535156 5.425781 1.390625 5.28125 C 0.171875 4.5 -0.554688 2.8125 -0.796875 0.21875 C -1.046875 -2.375 -0.828125 -5.550781 -0.140625 -9.3125 C 0.535156 -13.070312 1.65625 -17.15625 3.21875 -21.5625 C 3.375 -21.90625 3.617188 -22.160156 3.953125 -22.328125 C 4.296875 -22.492188 4.664062 -22.503906 5.0625 -22.359375 C 5.40625 -22.265625 5.660156 -22.035156 5.828125 -21.671875 C 6.003906 -21.304688 6.015625 -20.953125 5.859375 -20.609375 C 4.097656 -15.710938 2.960938 -11.566406 2.453125 -8.171875 C 1.941406 -4.773438 1.78125 -2.144531 1.96875 -0.28125 C 2.164062 1.570312 2.488281 2.644531 2.9375 2.9375 C 3.125 3.082031 3.585938 2.8125 4.328125 2.125 C 4.910156 1.582031 5.554688 0.863281 6.265625 -0.03125 C 6.972656 -0.9375 7.851562 -2.171875 8.90625 -3.734375 C 9.957031 -5.304688 11.289062 -7.363281 12.90625 -9.90625 C 13.25 -10.488281 13.765625 -10.679688 14.453125 -10.484375 C 15.128906 -10.285156 15.46875 -9.820312 15.46875 -9.09375 C 15.46875 -8.207031 15.515625 -7.128906 15.609375 -5.859375 C 15.710938 -4.585938 15.863281 -3.390625 16.0625 -2.265625 C 16.257812 -1.441406 16.429688 -0.832031 16.578125 -0.4375 C 16.722656 -0.0507812 16.84375 0.210938 16.9375 0.359375 C 17.425781 0.0664062 18.023438 -0.757812 18.734375 -2.125 C 19.441406 -3.5 20.175781 -5.160156 20.9375 -7.109375 C 21.695312 -9.066406 22.378906 -11.117188 22.984375 -13.265625 C 23.597656 -15.421875 24.023438 -17.425781 24.265625 -19.28125 C 24.410156 -20.0625 24.878906 -20.453125 25.671875 -20.453125 C 26.453125 -20.503906 26.914062 -20.140625 27.0625 -19.359375 C 27.882812 -15.109375 29.59375 -12.59375 32.1875 -11.8125 C 33.65625 -11.363281 35.34375 -11.554688 37.25 -12.390625 C 39.15625 -13.222656 41.0625 -14.59375 42.96875 -16.5 C 43.21875 -16.789062 43.535156 -16.9375 43.921875 -16.9375 C 44.316406 -16.9375 44.660156 -16.789062 44.953125 -16.5 Z M 44.953125 -16.5 "/></g></g></g><g fill="#ffffff" fill-opacity="1"><g transform="translate(254.485084, 149.039052)"><g><path d="M 24.78125 -15.328125 C 25.125 -15.078125 25.316406 -14.769531 25.359375 -14.40625 C 25.410156 -14.039062 25.34375 -13.6875 25.15625 -13.34375 C 22.269531 -9.382812 19.613281 -6.082031 17.1875 -3.4375 C 14.769531 -0.800781 12.390625 1.34375 10.046875 3 C 8.234375 4.320312 6.425781 4.984375 4.625 4.984375 C 3.300781 4.984375 2.125 4.59375 1.09375 3.8125 C 0.414062 3.320312 -0.265625 2.453125 -0.953125 1.203125 C -1.640625 -0.0351562 -1.992188 -1.828125 -2.015625 -4.171875 C -2.035156 -6.523438 -1.460938 -9.65625 -0.296875 -13.5625 C -0.296875 -13.5625 -0.269531 -13.5625 -0.21875 -13.5625 C 1.25 -18.300781 2.972656 -21.90625 4.953125 -24.375 C 6.929688 -26.84375 8.628906 -28.101562 10.046875 -28.15625 C 11.171875 -28.15625 11.90625 -27.644531 12.25 -26.625 C 12.78125 -25.195312 12.140625 -23.1875 10.328125 -20.59375 C 8.523438 -18.007812 5.863281 -15.25 2.34375 -12.3125 C 1.269531 -8.894531 0.753906 -6.21875 0.796875 -4.28125 C 0.847656 -2.351562 1.117188 -0.945312 1.609375 -0.0625 C 2.097656 0.8125 2.488281 1.347656 2.78125 1.546875 C 4.25 2.617188 6.132812 2.347656 8.4375 0.734375 C 10.632812 -0.828125 12.894531 -2.878906 15.21875 -5.421875 C 17.539062 -7.960938 20.070312 -11.140625 22.8125 -14.953125 C 23.050781 -15.296875 23.363281 -15.503906 23.75 -15.578125 C 24.144531 -15.648438 24.488281 -15.566406 24.78125 -15.328125 Z M 9.53125 -25.078125 C 8.988281 -24.734375 8.253906 -24 7.328125 -22.875 C 6.398438 -21.75 5.445312 -20.132812 4.46875 -18.03125 C 6.226562 -19.789062 7.472656 -21.257812 8.203125 -22.4375 C 8.941406 -23.613281 9.382812 -24.492188 9.53125 -25.078125 Z M 6.15625 -31.96875 L 3.078125 -38.0625 C 2.929688 -38.40625 2.914062 -38.757812 3.03125 -39.125 C 3.15625 -39.488281 3.390625 -39.769531 3.734375 -39.96875 C 4.078125 -40.113281 4.429688 -40.125 4.796875 -40 C 5.171875 -39.875 5.453125 -39.640625 5.640625 -39.296875 L 8.71875 -33.21875 C 8.875 -32.875 8.890625 -32.519531 8.765625 -32.15625 C 8.640625 -31.789062 8.40625 -31.507812 8.0625 -31.3125 C 7.863281 -31.21875 7.671875 -31.171875 7.484375 -31.171875 C 6.890625 -31.171875 6.445312 -31.4375 6.15625 -31.96875 Z M 6.15625 -31.96875 "/></g></g></g><g fill="#ffffff" fill-opacity="1"><g transform="translate(280.442342, 149.039052)"><g><path d="M 61.890625 -43.265625 C 62.128906 -42.972656 62.222656 -42.628906 62.171875 -42.234375 C 62.128906 -41.847656 61.9375 -41.53125 61.59375 -41.28125 C 61.007812 -40.894531 60.445312 -40.921875 59.90625 -41.359375 C 59.269531 -41.597656 57.816406 -41.765625 55.546875 -41.859375 C 53.273438 -41.960938 50.425781 -42.023438 47 -42.046875 C 43.582031 -42.078125 39.816406 -42.066406 35.703125 -42.015625 C 31.597656 -41.960938 27.382812 -41.898438 23.0625 -41.828125 C 18.738281 -41.753906 14.546875 -41.671875 10.484375 -41.578125 C 8.972656 -35.222656 7.382812 -28.316406 5.71875 -20.859375 C 4.050781 -13.398438 2.414062 -5.835938 0.8125 1.828125 C -1.289062 11.898438 -2.914062 20.160156 -4.0625 26.609375 C -5.21875 33.066406 -5.96875 37.738281 -6.3125 40.625 C -6.207031 40.625 -6.109375 40.648438 -6.015625 40.703125 C -5.617188 40.796875 -5.347656 41.023438 -5.203125 41.390625 C -5.054688 41.753906 -5.054688 42.109375 -5.203125 42.453125 C -5.492188 43.285156 -5.820312 44.054688 -6.1875 44.765625 C -6.5625 45.472656 -7.066406 45.828125 -7.703125 45.828125 C -7.847656 45.828125 -8.019531 45.800781 -8.21875 45.75 C -8.894531 45.507812 -9.269531 44.984375 -9.34375 44.171875 C -9.414062 43.367188 -9.359375 42.257812 -9.171875 40.84375 C -8.972656 38.789062 -8.53125 35.832031 -7.84375 31.96875 C -7.257812 28.351562 -6.503906 24.125 -5.578125 19.28125 C -4.648438 14.445312 -3.570312 9.144531 -2.34375 3.375 C -0.726562 -4.445312 0.929688 -12.21875 2.640625 -19.9375 C 4.347656 -27.664062 5.984375 -34.851562 7.546875 -41.5 C 5.203125 -41.457031 2.976562 -41.410156 0.875 -41.359375 C -1.21875 -41.304688 -3.125 -41.253906 -4.84375 -41.203125 C -8.113281 -41.109375 -10.96875 -41.035156 -13.40625 -40.984375 C -15.851562 -40.941406 -17.59375 -40.921875 -18.625 -40.921875 C -19.019531 -40.921875 -19.347656 -41.050781 -19.609375 -41.3125 C -19.878906 -41.582031 -20.015625 -41.914062 -20.015625 -42.3125 C -20.015625 -42.695312 -19.878906 -43.023438 -19.609375 -43.296875 C -19.347656 -43.566406 -19.019531 -43.703125 -18.625 -43.703125 C -17.59375 -43.703125 -15.867188 -43.738281 -13.453125 -43.8125 C -11.035156 -43.882812 -8.1875 -43.96875 -4.90625 -44.0625 C -2.5625 -44.113281 -0.289062 -44.164062 1.90625 -44.21875 C 4.101562 -44.269531 6.226562 -44.316406 8.28125 -44.359375 C 9.019531 -47.492188 9.742188 -50.441406 10.453125 -53.203125 C 11.160156 -55.960938 11.832031 -58.488281 12.46875 -60.78125 C 12.5625 -61.175781 12.78125 -61.472656 13.125 -61.671875 C 13.46875 -61.867188 13.8125 -61.914062 14.15625 -61.8125 C 14.539062 -61.71875 14.832031 -61.5 15.03125 -61.15625 C 15.226562 -60.8125 15.273438 -60.445312 15.171875 -60.0625 C 14.003906 -55.707031 12.660156 -50.5 11.140625 -44.4375 C 18.765625 -44.582031 25.289062 -44.691406 30.71875 -44.765625 C 36.144531 -44.835938 40.691406 -44.875 44.359375 -44.875 C 48.023438 -44.875 50.992188 -44.820312 53.265625 -44.71875 C 55.546875 -44.625 57.269531 -44.515625 58.4375 -44.390625 C 59.613281 -44.273438 60.445312 -44.117188 60.9375 -43.921875 C 61.425781 -43.722656 61.742188 -43.503906 61.890625 -43.265625 Z M 61.890625 -43.265625 "/></g></g></g><path fill="#000000" d="M 3.75 234.539062 L 3.75 342.59375 M 124.25 234.539062 L 124.25 342.59375 M 244.75 234.539062 L 244.75 342.59375 M 365.25 234.539062 L 365.25 342.59375 M 0 293.789062 L 369 293.789062 M 0 346.34375 L 128 346.34375 M 241 346.34375 L 369 346.34375 " fill-opacity="1" fill-rule="nonzero"/><g clip-path="url(#9c9394bee9)"><path stroke-linecap="butt" transform="matrix(0.75, 0, 0, 0.75, 0.0000045, 24.539061)" fill="none" stroke-linejoin="miter" d="M 4.999994 280.00002 L 4.999994 424.072947 M 165.666672 280.00002 L 165.666672 424.072947 M 326.333349 280.00002 L 326.333349 424.072947 M 487.000026 280.00002 L 487.000026 424.072947 M -0.000006 359.000026 L 492.000026 359.000026 M -0.000006 429.072947 L 170.666672 429.072947 M 321.333348 429.072947 L 492.000026 429.072947 " stroke="#ffffff" stroke-width="10" stroke-opacity="1" stroke-miterlimit="4"/></g><g clip-path="url(#8f5db6c0d3)"><path fill="#000000" d="M 37.5 262.402344 L 85.054688 262.402344 L 85.054688 309.957031 L 37.5 309.957031 Z M 37.5 262.402344 " fill-opacity="1" fill-rule="nonzero"/></g><g clip-path="url(#e1cbfb6f10)"><path fill="#000000" d="M 289.945312 278.328125 L 337.488281 278.328125 L 337.488281 294.03125 L 289.945312 294.03125 Z M 289.945312 278.328125 " fill-opacity="1" fill-rule="nonzero"/></g></svg>