<svg xmlns="http://www.w3.org/2000/svg" xmlns:xlink="http://www.w3.org/1999/xlink" width="500" zoomAndPan="magnify" viewBox="0 0 375 374.999991" height="500" preserveAspectRatio="xMidYMid meet" version="1.0"><defs><g/><clipPath id="8c26da23bf"><path d="M 64.5625 84 L 310.5625 84 L 310.5625 291 L 64.5625 291 Z M 64.5625 84 " clip-rule="nonzero"/></clipPath><clipPath id="4d8bd152a1"><path d="M 64.5625 80.714844 L 310.5625 80.714844 L 310.5625 294.464844 L 64.5625 294.464844 Z M 64.5625 80.714844 " clip-rule="nonzero"/></clipPath></defs><path fill="#000000" d="M 68.472656 84.628906 L 68.472656 212.503906 L 306.527344 212.503906 L 306.527344 84.628906 Z M 147.699219 255.628906 L 147.699219 290.371094 L 227.300781 290.371094 L 227.300781 255.628906 Z M 147.699219 255.628906 " fill-opacity="1" fill-rule="nonzero"/><path fill="#ffffff" d="M 68.472656 212.128906 L 68.472656 256.003906 L 148.074219 256.003906 L 148.074219 212.128906 Z M 147.699219 212.128906 L 147.699219 256.003906 L 227.300781 256.003906 L 227.300781 212.128906 Z M 226.925781 212.128906 L 226.925781 256.003906 L 306.527344 256.003906 L 306.527344 212.128906 Z M 68.472656 255.628906 L 68.472656 290.371094 L 148.074219 290.371094 L 148.074219 255.628906 Z M 226.925781 255.628906 L 226.925781 290.371094 L 306.527344 290.371094 L 306.527344 255.628906 Z M 226.925781 255.628906 " fill-opacity="1" fill-rule="nonzero"/><g fill="#ffffff" fill-opacity="1"><g transform="translate(127.299345, 159.047968)"><g><path d="M 53.71875 -48.03125 C 53.769531 -47.8125 53.75 -47.601562 53.65625 -47.40625 C 53.5625 -47.21875 53.414062 -47.082031 53.21875 -47 C 51.75 -46.53125 49.9375 -45.96875 47.78125 -45.3125 C 45.625 -44.664062 43.257812 -43.953125 40.6875 -43.171875 C 38.132812 -42.398438 35.421875 -41.578125 32.546875 -40.703125 C 29.671875 -39.828125 26.820312 -38.945312 24 -38.0625 C 23.53125 -36.269531 23.007812 -34.117188 22.4375 -31.609375 C 21.875 -29.109375 21.257812 -26.375 20.59375 -23.40625 C 19.925781 -20.445312 19.234375 -17.378906 18.515625 -14.203125 C 17.828125 -11.066406 17.128906 -7.921875 16.421875 -4.765625 C 15.710938 -1.617188 15.023438 1.410156 14.359375 4.328125 C 13.703125 7.253906 13.066406 9.976562 12.453125 12.5 C 11.484375 16.539062 10.695312 19.582031 10.09375 21.625 C 9.644531 23.207031 9.273438 24.273438 8.984375 24.828125 C 8.691406 25.378906 8.351562 25.65625 7.96875 25.65625 C 7.914062 25.65625 7.863281 25.65625 7.8125 25.65625 C 7.5 25.601562 7.265625 25.414062 7.109375 25.09375 C 6.960938 24.78125 6.890625 24.179688 6.890625 23.296875 C 6.890625 22.410156 6.972656 21.066406 7.140625 19.265625 C 7.171875 19.046875 7.269531 18.863281 7.4375 18.71875 C 7.601562 18.582031 7.796875 18.53125 8.015625 18.5625 C 8.234375 18.582031 8.410156 18.675781 8.546875 18.84375 C 8.691406 19.007812 8.75 19.203125 8.71875 19.421875 C 8.664062 20.035156 8.625 20.59375 8.59375 21.09375 C 8.976562 19.738281 9.425781 18.039062 9.9375 16 C 10.457031 13.96875 11.003906 11.710938 11.578125 9.234375 C 12.160156 6.753906 12.765625 4.160156 13.390625 1.453125 C 14.015625 -1.253906 14.628906 -3.972656 15.234375 -6.703125 C 15.847656 -9.429688 16.429688 -12.054688 16.984375 -14.578125 C 17.640625 -17.566406 18.28125 -20.460938 18.90625 -23.265625 C 19.53125 -26.078125 20.125 -28.691406 20.6875 -31.109375 C 21.257812 -33.535156 21.765625 -35.660156 22.203125 -37.484375 C 21.015625 -37.128906 19.851562 -36.769531 18.71875 -36.40625 C 17.582031 -36.050781 16.488281 -35.691406 15.4375 -35.328125 C 12.3125 -34.273438 9.8125 -33.398438 7.9375 -32.703125 C 6.070312 -32.015625 4.675781 -31.457031 3.75 -31.03125 C 2.820312 -30.601562 2.179688 -30.265625 1.828125 -30.015625 C 2.097656 -29.816406 2.207031 -29.554688 2.15625 -29.234375 C 2.070312 -28.785156 1.8125 -28.5625 1.375 -28.5625 C 1.3125 -28.5625 1.253906 -28.578125 1.203125 -28.609375 C 0.648438 -28.710938 0.28125 -28.878906 0.09375 -29.109375 C -0.0820312 -29.347656 -0.179688 -29.582031 -0.203125 -29.8125 C -0.203125 -30.082031 -0.0976562 -30.351562 0.109375 -30.625 C 0.316406 -30.90625 0.726562 -31.226562 1.34375 -31.59375 C 1.96875 -31.957031 2.90625 -32.398438 4.15625 -32.921875 C 6.425781 -33.890625 9.71875 -35.09375 14.03125 -36.53125 C 16.65625 -37.414062 19.476562 -38.328125 22.5 -39.265625 C 25.519531 -40.210938 28.550781 -41.148438 31.59375 -42.078125 C 34.632812 -43.003906 37.515625 -43.882812 40.234375 -44.71875 C 42.804688 -45.488281 45.164062 -46.195312 47.3125 -46.84375 C 49.457031 -47.5 51.257812 -48.0625 52.71875 -48.53125 C 52.914062 -48.582031 53.117188 -48.5625 53.328125 -48.46875 C 53.535156 -48.375 53.664062 -48.226562 53.71875 -48.03125 Z M 53.71875 -48.03125 "/></g></g></g><g fill="#ffffff" fill-opacity="1"><g transform="translate(152.417397, 159.047968)"><g><path d="M 12.171875 -9.46875 C 12.359375 -9.351562 12.472656 -9.1875 12.515625 -8.96875 C 12.554688 -8.75 12.519531 -8.539062 12.40625 -8.34375 C 11.882812 -7.507812 11.222656 -6.582031 10.421875 -5.5625 C 9.617188 -4.539062 8.742188 -3.566406 7.796875 -2.640625 C 6.859375 -1.710938 5.925781 -0.941406 5 -0.328125 C 4.070312 0.273438 3.222656 0.578125 2.453125 0.578125 C 2.117188 0.578125 1.828125 0.523438 1.578125 0.421875 C 0.640625 0.00390625 0.117188 -1 0.015625 -2.59375 C -0.078125 -4.1875 0.25 -6.4375 1 -9.34375 C 1.050781 -9.5625 1.171875 -9.722656 1.359375 -9.828125 C 1.554688 -9.941406 1.753906 -9.972656 1.953125 -9.921875 C 2.171875 -9.867188 2.332031 -9.742188 2.4375 -9.546875 C 2.550781 -9.359375 2.582031 -9.164062 2.53125 -8.96875 C 2.09375 -7.195312 1.816406 -5.789062 1.703125 -4.75 C 1.585938 -3.71875 1.566406 -2.9375 1.640625 -2.40625 C 1.710938 -1.882812 1.816406 -1.53125 1.953125 -1.34375 C 2.085938 -1.164062 2.171875 -1.078125 2.203125 -1.078125 C 2.554688 -0.910156 3.078125 -1.023438 3.765625 -1.421875 C 4.460938 -1.828125 5.238281 -2.425781 6.09375 -3.21875 C 6.957031 -4.007812 7.820312 -4.921875 8.6875 -5.953125 C 9.5625 -6.992188 10.347656 -8.082031 11.046875 -9.21875 C 11.179688 -9.40625 11.351562 -9.519531 11.5625 -9.5625 C 11.769531 -9.601562 11.972656 -9.570312 12.171875 -9.46875 Z M 2.359375 -12.78125 C 1.804688 -12.8125 1.523438 -12.972656 1.515625 -13.265625 C 1.503906 -13.554688 1.628906 -13.851562 1.890625 -14.15625 C 2.148438 -14.457031 2.421875 -14.664062 2.703125 -14.78125 C 3.140625 -14.914062 3.460938 -14.882812 3.671875 -14.6875 C 3.878906 -14.5 3.972656 -14.253906 3.953125 -13.953125 C 3.941406 -13.648438 3.804688 -13.375 3.546875 -13.125 C 3.285156 -12.875 2.890625 -12.757812 2.359375 -12.78125 Z M 2.359375 -12.78125 "/></g></g></g><g fill="#ffffff" fill-opacity="1"><g transform="translate(165.537147, 159.047968)"><g><path d="M 35.328125 -19.1875 C 35.359375 -18.988281 35.300781 -18.796875 35.15625 -18.609375 C 35.019531 -18.429688 34.84375 -18.332031 34.625 -18.3125 C 32.9375 -18.113281 31.34375 -17.863281 29.84375 -17.5625 C 28.351562 -17.257812 26.929688 -16.898438 25.578125 -16.484375 C 24.960938 -13.710938 24.335938 -10.921875 23.703125 -8.109375 C 23.066406 -5.304688 22.457031 -2.59375 21.875 0.03125 C 21.289062 2.664062 20.753906 5.097656 20.265625 7.328125 C 19.785156 9.554688 19.375 11.472656 19.03125 13.078125 C 18.6875 14.679688 18.445312 15.859375 18.3125 16.609375 C 17.726562 19.234375 16.894531 21.34375 15.8125 22.9375 C 14.738281 24.53125 13.46875 25.503906 12 25.859375 C 11.613281 25.972656 11.210938 26.03125 10.796875 26.03125 C 8.859375 26.03125 7.070312 25.046875 5.4375 23.078125 C 4.550781 22.023438 3.820312 20.660156 3.25 18.984375 C 2.6875 17.316406 2.320312 15.441406 2.15625 13.359375 C 1.988281 11.285156 2.0625 9.109375 2.375 6.828125 C 2.695312 4.546875 3.316406 2.253906 4.234375 -0.046875 C 6.304688 -5.140625 9.613281 -9.34375 14.15625 -12.65625 C 17.0625 -14.757812 20.425781 -16.453125 24.25 -17.734375 C 24.769531 -20.078125 25.285156 -22.34375 25.796875 -24.53125 C 26.304688 -26.71875 26.785156 -28.726562 27.234375 -30.5625 C 27.703125 -32.550781 27.96875 -34.097656 28.03125 -35.203125 C 28.101562 -36.304688 28.070312 -37.085938 27.9375 -37.546875 C 27.800781 -38.003906 27.664062 -38.25 27.53125 -38.28125 C 27.195312 -38.382812 26.71875 -38.179688 26.09375 -37.671875 C 25.46875 -37.160156 24.820312 -36.441406 24.15625 -35.515625 C 23.5 -34.585938 22.945312 -33.53125 22.5 -32.34375 C 22.28125 -31.757812 22.097656 -31.066406 21.953125 -30.265625 C 21.816406 -29.460938 21.859375 -28.6875 22.078125 -27.9375 C 22.304688 -27.1875 22.863281 -26.617188 23.75 -26.234375 C 23.9375 -26.148438 24.070312 -26.003906 24.15625 -25.796875 C 24.238281 -25.585938 24.238281 -25.390625 24.15625 -25.203125 C 24.070312 -25.003906 23.925781 -24.863281 23.71875 -24.78125 C 23.519531 -24.695312 23.304688 -24.695312 23.078125 -24.78125 C 21.722656 -25.394531 20.859375 -26.421875 20.484375 -27.859375 C 20.109375 -29.296875 20.28125 -30.984375 21 -32.921875 C 21.3125 -33.753906 21.734375 -34.613281 22.265625 -35.5 C 22.804688 -36.382812 23.398438 -37.1875 24.046875 -37.90625 C 24.703125 -38.625 25.367188 -39.171875 26.046875 -39.546875 C 26.722656 -39.921875 27.367188 -40.007812 27.984375 -39.8125 C 29.921875 -39.226562 30.179688 -36.019531 28.765625 -30.1875 C 28.347656 -28.46875 27.90625 -26.597656 27.4375 -24.578125 C 26.96875 -22.554688 26.484375 -20.453125 25.984375 -18.265625 C 28.617188 -19.015625 31.441406 -19.554688 34.453125 -19.890625 C 34.648438 -19.910156 34.835938 -19.851562 35.015625 -19.71875 C 35.191406 -19.582031 35.296875 -19.40625 35.328125 -19.1875 Z M 16.734375 16.28125 C 16.898438 15.550781 17.144531 14.410156 17.46875 12.859375 C 17.800781 11.316406 18.203125 9.460938 18.671875 7.296875 C 19.148438 5.140625 19.664062 2.78125 20.21875 0.21875 C 20.769531 -2.332031 21.359375 -4.976562 21.984375 -7.71875 C 22.609375 -10.457031 23.222656 -13.1875 23.828125 -15.90625 C 20.234375 -14.625 17.238281 -13.0625 14.84375 -11.21875 C 12.445312 -9.382812 10.519531 -7.441406 9.0625 -5.390625 C 7.613281 -3.347656 6.503906 -1.359375 5.734375 0.578125 C 5.066406 2.210938 4.550781 4.019531 4.1875 6 C 3.832031 7.976562 3.664062 9.96875 3.6875 11.96875 C 3.71875 13.976562 3.96875 15.863281 4.4375 17.625 C 4.90625 19.382812 5.640625 20.859375 6.640625 22.046875 C 7.421875 22.984375 8.242188 23.644531 9.109375 24.03125 C 9.984375 24.425781 10.820312 24.523438 11.625 24.328125 C 12.789062 24.046875 13.804688 23.210938 14.671875 21.828125 C 15.546875 20.453125 16.234375 18.601562 16.734375 16.28125 Z M 16.734375 16.28125 "/></g></g></g><g fill="#ffffff" fill-opacity="1"><g transform="translate(200.536174, 159.047968)"><g><path d="M 25.453125 -9.34375 C 25.585938 -9.207031 25.660156 -9.023438 25.671875 -8.796875 C 25.691406 -8.578125 25.617188 -8.382812 25.453125 -8.21875 C 24.148438 -6.894531 22.828125 -5.96875 21.484375 -5.4375 C 20.140625 -4.914062 18.898438 -4.816406 17.765625 -5.140625 C 17.265625 -5.304688 16.738281 -5.582031 16.1875 -5.96875 C 15.632812 -6.363281 15.148438 -6.976562 14.734375 -7.8125 C 14.316406 -6.257812 13.847656 -4.773438 13.328125 -3.359375 C 12.742188 -1.835938 12.222656 -0.710938 11.765625 0.015625 C 11.304688 0.753906 10.894531 1.238281 10.53125 1.46875 C 10.175781 1.707031 9.863281 1.828125 9.59375 1.828125 C 9.09375 1.828125 8.703125 1.640625 8.421875 1.265625 C 8.148438 0.890625 7.941406 0.476562 7.796875 0.03125 C 7.660156 -0.40625 7.566406 -0.75 7.515625 -1 C 7.429688 -1.46875 7.363281 -2.019531 7.3125 -2.65625 C 6.363281 -1.1875 5.601562 -0.0859375 5.03125 0.640625 C 4.46875 1.378906 3.96875 1.953125 3.53125 2.359375 C 3.164062 2.722656 2.832031 2.96875 2.53125 3.09375 C 2.226562 3.21875 1.953125 3.28125 1.703125 3.28125 C 1.503906 3.28125 1.320312 3.25 1.15625 3.1875 C 0.988281 3.132812 0.863281 3.066406 0.78125 2.984375 C 0.09375 2.546875 -0.316406 1.59375 -0.453125 0.125 C -0.597656 -1.34375 -0.472656 -3.140625 -0.078125 -5.265625 C 0.304688 -7.398438 0.941406 -9.710938 1.828125 -12.203125 C 1.910156 -12.398438 2.046875 -12.546875 2.234375 -12.640625 C 2.429688 -12.734375 2.640625 -12.738281 2.859375 -12.65625 C 3.054688 -12.601562 3.203125 -12.472656 3.296875 -12.265625 C 3.398438 -12.054688 3.410156 -11.859375 3.328125 -11.671875 C 2.328125 -8.898438 1.679688 -6.550781 1.390625 -4.625 C 1.097656 -2.707031 1.003906 -1.222656 1.109375 -0.171875 C 1.222656 0.878906 1.40625 1.488281 1.65625 1.65625 C 1.769531 1.738281 2.035156 1.585938 2.453125 1.203125 C 2.785156 0.898438 3.148438 0.492188 3.546875 -0.015625 C 3.953125 -0.523438 4.453125 -1.222656 5.046875 -2.109375 C 5.640625 -3.003906 6.394531 -4.171875 7.3125 -5.609375 C 7.5 -5.941406 7.785156 -6.050781 8.171875 -5.9375 C 8.566406 -5.820312 8.765625 -5.554688 8.765625 -5.140625 C 8.765625 -4.648438 8.789062 -4.039062 8.84375 -3.3125 C 8.894531 -2.59375 8.976562 -1.914062 9.09375 -1.28125 C 9.207031 -0.8125 9.300781 -0.46875 9.375 -0.25 C 9.457031 -0.03125 9.53125 0.117188 9.59375 0.203125 C 9.863281 0.0351562 10.195312 -0.429688 10.59375 -1.203125 C 11 -1.972656 11.414062 -2.910156 11.84375 -4.015625 C 12.28125 -5.128906 12.671875 -6.296875 13.015625 -7.515625 C 13.359375 -8.734375 13.597656 -9.867188 13.734375 -10.921875 C 13.816406 -11.359375 14.082031 -11.578125 14.53125 -11.578125 C 14.96875 -11.609375 15.226562 -11.398438 15.3125 -10.953125 C 15.789062 -8.546875 16.757812 -7.125 18.21875 -6.6875 C 19.050781 -6.4375 20.003906 -6.546875 21.078125 -7.015625 C 22.160156 -7.484375 23.242188 -8.257812 24.328125 -9.34375 C 24.460938 -9.507812 24.640625 -9.59375 24.859375 -9.59375 C 25.085938 -9.59375 25.285156 -9.507812 25.453125 -9.34375 Z M 25.453125 -9.34375 "/></g></g></g><g fill="#ffffff" fill-opacity="1"><g transform="translate(226.775178, 159.047968)"><g><path d="M 14.03125 -8.671875 C 14.226562 -8.535156 14.335938 -8.363281 14.359375 -8.15625 C 14.390625 -7.945312 14.347656 -7.75 14.234375 -7.5625 C 12.609375 -5.3125 11.109375 -3.4375 9.734375 -1.9375 C 8.367188 -0.445312 7.019531 0.765625 5.6875 1.703125 C 4.664062 2.453125 3.640625 2.828125 2.609375 2.828125 C 1.867188 2.828125 1.207031 2.601562 0.625 2.15625 C 0.238281 1.882812 -0.144531 1.394531 -0.53125 0.6875 C -0.925781 -0.0195312 -1.128906 -1.035156 -1.140625 -2.359375 C -1.148438 -3.691406 -0.828125 -5.46875 -0.171875 -7.6875 C -0.171875 -7.6875 -0.15625 -7.6875 -0.125 -7.6875 C 0.707031 -10.363281 1.679688 -12.398438 2.796875 -13.796875 C 3.921875 -15.203125 4.882812 -15.914062 5.6875 -15.9375 C 6.320312 -15.9375 6.738281 -15.644531 6.9375 -15.0625 C 7.238281 -14.257812 6.875 -13.125 5.84375 -11.65625 C 4.820312 -10.195312 3.316406 -8.632812 1.328125 -6.96875 C 0.722656 -5.03125 0.429688 -3.515625 0.453125 -2.421875 C 0.484375 -1.328125 0.632812 -0.53125 0.90625 -0.03125 C 1.1875 0.457031 1.410156 0.757812 1.578125 0.875 C 2.410156 1.476562 3.476562 1.328125 4.78125 0.421875 C 6.019531 -0.460938 7.296875 -1.625 8.609375 -3.0625 C 9.929688 -4.507812 11.363281 -6.3125 12.90625 -8.46875 C 13.050781 -8.664062 13.234375 -8.785156 13.453125 -8.828125 C 13.671875 -8.867188 13.863281 -8.816406 14.03125 -8.671875 Z M 5.390625 -14.203125 C 5.085938 -14.003906 4.671875 -13.585938 4.140625 -12.953125 C 3.617188 -12.316406 3.082031 -11.40625 2.53125 -10.21875 C 3.53125 -11.207031 4.234375 -12.035156 4.640625 -12.703125 C 5.054688 -13.367188 5.304688 -13.867188 5.390625 -14.203125 Z M 3.484375 -18.09375 L 1.75 -21.546875 C 1.664062 -21.742188 1.65625 -21.941406 1.71875 -22.140625 C 1.789062 -22.347656 1.925781 -22.507812 2.125 -22.625 C 2.3125 -22.707031 2.507812 -22.710938 2.71875 -22.640625 C 2.925781 -22.578125 3.085938 -22.445312 3.203125 -22.25 L 4.9375 -18.8125 C 5.019531 -18.613281 5.023438 -18.410156 4.953125 -18.203125 C 4.890625 -17.992188 4.757812 -17.835938 4.5625 -17.734375 C 4.457031 -17.671875 4.347656 -17.640625 4.234375 -17.640625 C 3.898438 -17.640625 3.648438 -17.789062 3.484375 -18.09375 Z M 3.484375 -18.09375 "/></g></g></g><g fill="#ffffff" fill-opacity="1"><g transform="translate(241.472551, 159.047968)"><g><path d="M 35.046875 -24.5 C 35.179688 -24.332031 35.234375 -24.132812 35.203125 -23.90625 C 35.171875 -23.6875 35.0625 -23.507812 34.875 -23.375 C 34.539062 -23.15625 34.222656 -23.171875 33.921875 -23.421875 C 33.554688 -23.554688 32.726562 -23.648438 31.4375 -23.703125 C 30.15625 -23.753906 28.546875 -23.785156 26.609375 -23.796875 C 24.671875 -23.816406 22.539062 -23.8125 20.21875 -23.78125 C 17.894531 -23.757812 15.503906 -23.726562 13.046875 -23.6875 C 10.597656 -23.644531 8.226562 -23.597656 5.9375 -23.546875 C 5.082031 -19.941406 4.179688 -16.03125 3.234375 -11.8125 C 2.296875 -7.59375 1.367188 -3.3125 0.453125 1.03125 C -0.734375 6.738281 -1.648438 11.414062 -2.296875 15.0625 C -2.953125 18.71875 -3.378906 21.363281 -3.578125 23 C -3.515625 23 -3.457031 23.015625 -3.40625 23.046875 C -3.1875 23.097656 -3.035156 23.226562 -2.953125 23.4375 C -2.867188 23.644531 -2.867188 23.84375 -2.953125 24.03125 C -3.117188 24.507812 -3.300781 24.945312 -3.5 25.34375 C -3.707031 25.75 -3.992188 25.953125 -4.359375 25.953125 C -4.441406 25.953125 -4.539062 25.9375 -4.65625 25.90625 C -5.039062 25.769531 -5.253906 25.472656 -5.296875 25.015625 C -5.335938 24.554688 -5.300781 23.925781 -5.1875 23.125 C -5.070312 21.957031 -4.820312 20.28125 -4.4375 18.09375 C -4.101562 16.050781 -3.671875 13.660156 -3.140625 10.921875 C -2.617188 8.179688 -2.015625 5.175781 -1.328125 1.90625 C -0.410156 -2.519531 0.53125 -6.921875 1.5 -11.296875 C 2.46875 -15.671875 3.394531 -19.738281 4.28125 -23.5 C 2.945312 -23.46875 1.6875 -23.4375 0.5 -23.40625 C -0.6875 -23.382812 -1.765625 -23.359375 -2.734375 -23.328125 C -4.585938 -23.273438 -6.207031 -23.234375 -7.59375 -23.203125 C -8.976562 -23.179688 -9.960938 -23.171875 -10.546875 -23.171875 C -10.765625 -23.171875 -10.945312 -23.242188 -11.09375 -23.390625 C -11.25 -23.546875 -11.328125 -23.734375 -11.328125 -23.953125 C -11.328125 -24.171875 -11.25 -24.359375 -11.09375 -24.515625 C -10.945312 -24.671875 -10.765625 -24.75 -10.546875 -24.75 C -9.960938 -24.75 -8.984375 -24.769531 -7.609375 -24.8125 C -6.242188 -24.851562 -4.632812 -24.898438 -2.78125 -24.953125 C -1.445312 -24.984375 -0.160156 -25.007812 1.078125 -25.03125 C 2.328125 -25.0625 3.53125 -25.085938 4.6875 -25.109375 C 5.101562 -26.890625 5.507812 -28.5625 5.90625 -30.125 C 6.3125 -31.6875 6.695312 -33.117188 7.0625 -34.421875 C 7.113281 -34.640625 7.234375 -34.800781 7.421875 -34.90625 C 7.617188 -35.019531 7.816406 -35.050781 8.015625 -35 C 8.234375 -34.945312 8.394531 -34.820312 8.5 -34.625 C 8.613281 -34.425781 8.644531 -34.21875 8.59375 -34 C 7.925781 -31.539062 7.164062 -28.59375 6.3125 -25.15625 C 10.625 -25.238281 14.316406 -25.300781 17.390625 -25.34375 C 20.460938 -25.382812 23.035156 -25.40625 25.109375 -25.40625 C 27.191406 -25.40625 28.875 -25.375 30.15625 -25.3125 C 31.445312 -25.257812 32.421875 -25.195312 33.078125 -25.125 C 33.742188 -25.0625 34.21875 -24.972656 34.5 -24.859375 C 34.78125 -24.753906 34.960938 -24.632812 35.046875 -24.5 Z M 35.046875 -24.5 "/></g></g></g><g fill="#000000" fill-opacity="1"><g transform="translate(103.31216, 239.83221)"><g><path d="M 5.625 -7.21875 L 8.453125 -7.21875 L 8.453125 -5.265625 L 5.625 -5.265625 L 5.625 -2.390625 L 3.578125 -2.390625 L 3.578125 -5.265625 L 0.75 -5.265625 L 0.75 -7.21875 L 3.578125 -7.21875 L 3.578125 -10.09375 L 5.625 -10.09375 Z M 5.625 -7.21875 "/></g></g></g><g fill="#000000" fill-opacity="1"><g transform="translate(263.005479, 239.83221)"><g><path d="M 5.96875 -5.015625 L 0.75 -5.015625 L 0.75 -7.109375 L 5.96875 -7.109375 Z M 5.96875 -5.015625 "/></g></g></g><g clip-path="url(#8c26da23bf)"><path fill="#000000" d="M 68.660156 88.914062 L 68.660156 286.085938 M 147.886719 216.414062 L 147.886719 286.085938 M 227.113281 216.414062 L 227.113281 286.085938 M 306.339844 88.914062 L 306.339844 286.085938 M 64.5625 84.816406 L 310.4375 84.816406 M 64.5625 212.316406 L 310.4375 212.316406 M 64.5625 255.816406 L 310.4375 255.816406 M 64.5625 290.183594 L 310.4375 290.183594 " fill-opacity="1" fill-rule="nonzero"/></g><g clip-path="url(#4d8bd152a1)"><path stroke-linecap="butt" transform="matrix(0.75, 0, 0, 0.75, 64.563751, 80.716658)" fill="none" stroke-linejoin="miter" d="M 5.461873 10.929874 L 5.461873 273.825724 M 111.097297 180.929885 L 111.097297 273.825724 M 216.732721 180.929885 L 216.732721 273.825724 M 322.368144 10.929874 L 322.368144 273.825724 M -0.00166861 5.466331 L 327.831686 5.466331 M -0.00166861 175.466343 L 327.831686 175.466343 M -0.00166861 233.466346 L 327.831686 233.466346 M -0.00166861 279.289266 L 327.831686 279.289266 " stroke="#000000" stroke-width="10.927667" stroke-opacity="1" stroke-miterlimit="4"/></g></svg>