<svg xmlns="http://www.w3.org/2000/svg" xmlns:xlink="http://www.w3.org/1999/xlink" width="500" zoomAndPan="magnify" viewBox="0 0 375 374.999991" height="500" preserveAspectRatio="xMidYMid meet" version="1.0"><defs><g/></defs><g fill="#ffffff" fill-opacity="1"><g transform="translate(50.311033, 237.122708)"><g><path d="M 13.15625 -19.5 L 13.15625 -5 C 13.15625 -3.394531 12.617188 -2.113281 11.546875 -1.15625 C 10.472656 -0.207031 8.941406 0.265625 6.953125 0.265625 C 5.179688 0.265625 3.773438 -0.113281 2.734375 -0.875 C 1.691406 -1.632812 1.0625 -2.675781 0.84375 -4 L 5.0625 -5.234375 C 5.15625 -4.734375 5.375 -4.320312 5.71875 -4 C 6.0625 -3.675781 6.472656 -3.515625 6.953125 -3.515625 C 7.492188 -3.515625 7.945312 -3.707031 8.3125 -4.09375 C 8.6875 -4.488281 8.875 -4.976562 8.875 -5.5625 L 8.875 -15.703125 L 2.46875 -15.703125 L 2.46875 -19.5 Z M 13.15625 -19.5 "/></g></g></g><g fill="#ffffff" fill-opacity="1"><g transform="translate(66.238134, 237.122708)"><g><path d="M 11.21875 0.265625 C 9.820312 0.265625 8.523438 0.00390625 7.328125 -0.515625 C 6.128906 -1.035156 5.066406 -1.753906 4.140625 -2.671875 C 3.222656 -3.597656 2.503906 -4.660156 1.984375 -5.859375 C 1.460938 -7.066406 1.203125 -8.363281 1.203125 -9.75 C 1.203125 -11.132812 1.460938 -12.425781 1.984375 -13.625 C 2.503906 -14.832031 3.222656 -15.894531 4.140625 -16.8125 C 5.066406 -17.738281 6.128906 -18.460938 7.328125 -18.984375 C 8.523438 -19.503906 9.820312 -19.765625 11.21875 -19.765625 C 12.601562 -19.765625 13.898438 -19.503906 15.109375 -18.984375 C 16.328125 -18.460938 17.390625 -17.738281 18.296875 -16.8125 C 19.203125 -15.894531 19.914062 -14.832031 20.4375 -13.625 C 20.957031 -12.425781 21.21875 -11.132812 21.21875 -9.75 C 21.21875 -8.363281 20.957031 -7.066406 20.4375 -5.859375 C 19.914062 -4.660156 19.203125 -3.597656 18.296875 -2.671875 C 17.390625 -1.753906 16.328125 -1.035156 15.109375 -0.515625 C 13.898438 0.00390625 12.601562 0.265625 11.21875 0.265625 Z M 11.21875 -3.9375 C 12.320312 -3.9375 13.3125 -4.1875 14.1875 -4.6875 C 15.0625 -5.195312 15.753906 -5.890625 16.265625 -6.765625 C 16.773438 -7.648438 17.03125 -8.644531 17.03125 -9.75 C 17.03125 -10.851562 16.773438 -11.84375 16.265625 -12.71875 C 15.753906 -13.601562 15.0625 -14.296875 14.1875 -14.796875 C 13.3125 -15.304688 12.320312 -15.5625 11.21875 -15.5625 C 10.132812 -15.5625 9.148438 -15.304688 8.265625 -14.796875 C 7.390625 -14.296875 6.695312 -13.601562 6.1875 -12.71875 C 5.675781 -11.84375 5.421875 -10.851562 5.421875 -9.75 C 5.421875 -8.644531 5.675781 -7.648438 6.1875 -6.765625 C 6.695312 -5.890625 7.390625 -5.195312 8.265625 -4.6875 C 9.148438 -4.1875 10.132812 -3.9375 11.21875 -3.9375 Z M 11.21875 -3.9375 "/></g></g></g><g fill="#ffffff" fill-opacity="1"><g transform="translate(89.832949, 237.122708)"><g><path d="M 15.921875 -19.5 L 20.1875 -19.5 L 20.1875 0 L 15.765625 0 L 6.203125 -12.9375 L 6.203125 0 L 1.921875 0 L 1.921875 -19.5 L 6.34375 -19.5 L 15.921875 -6.59375 Z M 15.921875 -19.5 "/></g></g></g><g fill="#ffffff" fill-opacity="1"><g transform="translate(113.102866, 237.122708)"><g><path d="M 13.84375 0 L 12.640625 -3.671875 L 5.359375 -3.671875 L 4.15625 0 L -0.421875 0 L 6.59375 -19.5 L 11.40625 -19.5 L 18.421875 0 Z M 6.5 -7.25 L 11.5 -7.25 L 9 -14.984375 Z M 6.5 -7.25 "/></g></g></g><g fill="#ffffff" fill-opacity="1"><g transform="translate(132.246513, 237.122708)"><g><path d="M 13.9375 -19.5 L 13.9375 -15.703125 L 9.03125 -15.703125 L 9.03125 0 L 4.78125 0 L 4.78125 -15.703125 L -0.15625 -15.703125 L -0.15625 -19.5 Z M 13.9375 -19.5 "/></g></g></g><g fill="#ffffff" fill-opacity="1"><g transform="translate(147.166426, 237.122708)"><g><path d="M 14.140625 -19.5 L 18.390625 -19.5 L 18.390625 0 L 14.140625 0 L 14.140625 -7.859375 L 6.203125 -7.859375 L 6.203125 0 L 1.921875 0 L 1.921875 -19.5 L 6.203125 -19.5 L 6.203125 -11.671875 L 14.140625 -11.671875 Z M 14.140625 -19.5 "/></g></g></g><g fill="#ffffff" fill-opacity="1"><g transform="translate(168.649365, 237.122708)"><g><path d="M 13.84375 0 L 12.640625 -3.671875 L 5.359375 -3.671875 L 4.15625 0 L -0.421875 0 L 6.59375 -19.5 L 11.40625 -19.5 L 18.421875 0 Z M 6.5 -7.25 L 11.5 -7.25 L 9 -14.984375 Z M 6.5 -7.25 "/></g></g></g><g fill="#ffffff" fill-opacity="1"><g transform="translate(187.793018, 237.122708)"><g><path d="M 15.921875 -19.5 L 20.1875 -19.5 L 20.1875 0 L 15.765625 0 L 6.203125 -12.9375 L 6.203125 0 L 1.921875 0 L 1.921875 -19.5 L 6.34375 -19.5 L 15.921875 -6.59375 Z M 15.921875 -19.5 "/></g></g></g><g fill="#ffffff" fill-opacity="1"><g transform="translate(211.062929, 237.122708)"><g/></g></g><g fill="#ffffff" fill-opacity="1"><g transform="translate(220.00461, 237.122708)"><g><path d="M 7.9375 0.265625 C 6.21875 0.265625 4.707031 -0.15625 3.40625 -1 C 2.113281 -1.851562 1.148438 -2.882812 0.515625 -4.09375 L 4.0625 -6.3125 C 4.425781 -5.550781 4.941406 -4.9375 5.609375 -4.46875 C 6.285156 -4 7.070312 -3.765625 7.96875 -3.765625 C 8.71875 -3.765625 9.304688 -3.925781 9.734375 -4.25 C 10.160156 -4.582031 10.375 -5.019531 10.375 -5.5625 C 10.375 -6.125 10.15625 -6.578125 9.71875 -6.921875 C 9.28125 -7.265625 8.71875 -7.554688 8.03125 -7.796875 C 7.351562 -8.035156 6.628906 -8.289062 5.859375 -8.5625 C 5.097656 -8.832031 4.375 -9.179688 3.6875 -9.609375 C 3.007812 -10.046875 2.453125 -10.609375 2.015625 -11.296875 C 1.578125 -11.992188 1.359375 -12.894531 1.359375 -14 C 1.359375 -15.300781 1.660156 -16.375 2.265625 -17.21875 C 2.878906 -18.070312 3.664062 -18.707031 4.625 -19.125 C 5.59375 -19.550781 6.585938 -19.765625 7.609375 -19.765625 C 8.816406 -19.765625 9.941406 -19.507812 10.984375 -19 C 12.023438 -18.488281 12.90625 -17.820312 13.625 -17 L 10.75 -14.265625 C 10.28125 -14.804688 9.773438 -15.222656 9.234375 -15.515625 C 8.691406 -15.804688 8.140625 -15.953125 7.578125 -15.953125 C 7.054688 -15.953125 6.609375 -15.820312 6.234375 -15.5625 C 5.867188 -15.300781 5.6875 -14.890625 5.6875 -14.328125 C 5.6875 -13.765625 5.898438 -13.320312 6.328125 -13 C 6.765625 -12.675781 7.320312 -12.394531 8 -12.15625 C 8.6875 -11.914062 9.410156 -11.65625 10.171875 -11.375 C 10.929688 -11.09375 11.648438 -10.722656 12.328125 -10.265625 C 13.015625 -9.816406 13.570312 -9.21875 14 -8.46875 C 14.4375 -7.71875 14.65625 -6.738281 14.65625 -5.53125 C 14.65625 -4.3125 14.347656 -3.269531 13.734375 -2.40625 C 13.117188 -1.539062 12.300781 -0.878906 11.28125 -0.421875 C 10.257812 0.0351562 9.144531 0.265625 7.9375 0.265625 Z M 7.9375 0.265625 "/></g></g></g><g fill="#ffffff" fill-opacity="1"><g transform="translate(236.549035, 237.122708)"><g><path d="M 13.84375 0 L 12.640625 -3.671875 L 5.359375 -3.671875 L 4.15625 0 L -0.421875 0 L 6.59375 -19.5 L 11.40625 -19.5 L 18.421875 0 Z M 6.5 -7.25 L 11.5 -7.25 L 9 -14.984375 Z M 6.5 -7.25 "/></g></g></g><g fill="#ffffff" fill-opacity="1"><g transform="translate(255.692687, 237.122708)"><g><path d="M 15.921875 -19.5 L 20.1875 -19.5 L 20.1875 0 L 15.765625 0 L 6.203125 -12.9375 L 6.203125 0 L 1.921875 0 L 1.921875 -19.5 L 6.34375 -19.5 L 15.921875 -6.59375 Z M 15.921875 -19.5 "/></g></g></g><g fill="#ffffff" fill-opacity="1"><g transform="translate(278.962598, 237.122708)"><g><path d="M 11.21875 0.265625 C 9.820312 0.265625 8.523438 0.00390625 7.328125 -0.515625 C 6.128906 -1.035156 5.066406 -1.753906 4.140625 -2.671875 C 3.222656 -3.597656 2.503906 -4.660156 1.984375 -5.859375 C 1.460938 -7.066406 1.203125 -8.363281 1.203125 -9.75 C 1.203125 -11.132812 1.460938 -12.425781 1.984375 -13.625 C 2.503906 -14.832031 3.222656 -15.894531 4.140625 -16.8125 C 5.066406 -17.738281 6.128906 -18.460938 7.328125 -18.984375 C 8.523438 -19.503906 9.820312 -19.765625 11.21875 -19.765625 C 12.601562 -19.765625 13.898438 -19.503906 15.109375 -18.984375 C 16.328125 -18.460938 17.390625 -17.738281 18.296875 -16.8125 C 19.203125 -15.894531 19.914062 -14.832031 20.4375 -13.625 C 20.957031 -12.425781 21.21875 -11.132812 21.21875 -9.75 C 21.21875 -8.363281 20.957031 -7.066406 20.4375 -5.859375 C 19.914062 -4.660156 19.203125 -3.597656 18.296875 -2.671875 C 17.390625 -1.753906 16.328125 -1.035156 15.109375 -0.515625 C 13.898438 0.00390625 12.601562 0.265625 11.21875 0.265625 Z M 11.21875 -3.9375 C 12.320312 -3.9375 13.3125 -4.1875 14.1875 -4.6875 C 15.0625 -5.195312 15.753906 -5.890625 16.265625 -6.765625 C 16.773438 -7.648438 17.03125 -8.644531 17.03125 -9.75 C 17.03125 -10.851562 16.773438 -11.84375 16.265625 -12.71875 C 15.753906 -13.601562 15.0625 -14.296875 14.1875 -14.796875 C 13.3125 -15.304688 12.320312 -15.5625 11.21875 -15.5625 C 10.132812 -15.5625 9.148438 -15.304688 8.265625 -14.796875 C 7.390625 -14.296875 6.695312 -13.601562 6.1875 -12.71875 C 5.675781 -11.84375 5.421875 -10.851562 5.421875 -9.75 C 5.421875 -8.644531 5.675781 -7.648438 6.1875 -6.765625 C 6.695312 -5.890625 7.390625 -5.195312 8.265625 -4.6875 C 9.148438 -4.1875 10.132812 -3.9375 11.21875 -3.9375 Z M 11.21875 -3.9375 "/></g></g></g><g fill="#ffffff" fill-opacity="1"><g transform="translate(302.557407, 237.122708)"><g><path d="M 15.921875 -19.5 L 20.1875 -19.5 L 20.1875 0 L 15.765625 0 L 6.203125 -12.9375 L 6.203125 0 L 1.921875 0 L 1.921875 -19.5 L 6.34375 -19.5 L 15.921875 -6.59375 Z M 15.921875 -19.5 "/></g></g></g><g fill="#ffffff" fill-opacity="1"><g transform="translate(116.41217, 264.816722)"><g><path d="M 3.359375 0.125 C 2.691406 0.125 2.09375 -0.0390625 1.5625 -0.375 C 1.039062 -0.71875 0.664062 -1.160156 0.4375 -1.703125 L 1.3125 -2.21875 C 1.46875 -1.8125 1.722656 -1.476562 2.078125 -1.21875 C 2.429688 -0.96875 2.863281 -0.84375 3.375 -0.84375 C 3.875 -0.84375 4.296875 -0.972656 4.640625 -1.234375 C 4.992188 -1.492188 5.171875 -1.863281 5.171875 -2.34375 C 5.171875 -2.707031 5.066406 -3.003906 4.859375 -3.234375 C 4.648438 -3.472656 4.378906 -3.671875 4.046875 -3.828125 C 3.710938 -3.992188 3.359375 -4.148438 2.984375 -4.296875 C 2.617188 -4.441406 2.265625 -4.613281 1.921875 -4.8125 C 1.585938 -5.007812 1.316406 -5.257812 1.109375 -5.5625 C 0.898438 -5.875 0.796875 -6.269531 0.796875 -6.75 C 0.796875 -7.238281 0.90625 -7.660156 1.125 -8.015625 C 1.351562 -8.367188 1.65625 -8.640625 2.03125 -8.828125 C 2.414062 -9.023438 2.835938 -9.125 3.296875 -9.125 C 3.816406 -9.125 4.285156 -9.015625 4.703125 -8.796875 C 5.117188 -8.578125 5.453125 -8.3125 5.703125 -8 L 4.953125 -7.359375 C 4.578125 -7.890625 4.035156 -8.15625 3.328125 -8.15625 C 2.910156 -8.15625 2.539062 -8.046875 2.21875 -7.828125 C 1.90625 -7.609375 1.75 -7.273438 1.75 -6.828125 C 1.75 -6.460938 1.851562 -6.171875 2.0625 -5.953125 C 2.28125 -5.734375 2.554688 -5.546875 2.890625 -5.390625 C 3.222656 -5.234375 3.570312 -5.082031 3.9375 -4.9375 C 4.3125 -4.789062 4.664062 -4.613281 5 -4.40625 C 5.332031 -4.207031 5.601562 -3.945312 5.8125 -3.625 C 6.03125 -3.300781 6.140625 -2.882812 6.140625 -2.375 C 6.140625 -1.851562 6.015625 -1.40625 5.765625 -1.03125 C 5.515625 -0.65625 5.175781 -0.367188 4.75 -0.171875 C 4.332031 0.0234375 3.867188 0.125 3.359375 0.125 Z M 3.359375 0.125 "/></g></g></g><g fill="#ffffff" fill-opacity="1"><g transform="translate(127.00224, 264.816722)"><g><path d="M 5.359375 0.125 C 4.710938 0.125 4.113281 0.00390625 3.5625 -0.234375 C 3.007812 -0.472656 2.519531 -0.804688 2.09375 -1.234375 C 1.664062 -1.660156 1.332031 -2.148438 1.09375 -2.703125 C 0.851562 -3.265625 0.734375 -3.863281 0.734375 -4.5 C 0.734375 -5.132812 0.851562 -5.726562 1.09375 -6.28125 C 1.332031 -6.84375 1.664062 -7.335938 2.09375 -7.765625 C 2.519531 -8.191406 3.007812 -8.523438 3.5625 -8.765625 C 4.113281 -9.003906 4.710938 -9.125 5.359375 -9.125 C 5.992188 -9.125 6.59375 -9.003906 7.15625 -8.765625 C 7.71875 -8.523438 8.207031 -8.191406 8.625 -7.765625 C 9.039062 -7.335938 9.367188 -6.84375 9.609375 -6.28125 C 9.847656 -5.726562 9.96875 -5.132812 9.96875 -4.5 C 9.96875 -3.863281 9.847656 -3.265625 9.609375 -2.703125 C 9.367188 -2.148438 9.039062 -1.660156 8.625 -1.234375 C 8.207031 -0.804688 7.71875 -0.472656 7.15625 -0.234375 C 6.59375 0.00390625 5.992188 0.125 5.359375 0.125 Z M 5.359375 -0.84375 C 6.035156 -0.84375 6.648438 -1.003906 7.203125 -1.328125 C 7.765625 -1.648438 8.207031 -2.085938 8.53125 -2.640625 C 8.851562 -3.203125 9.015625 -3.820312 9.015625 -4.5 C 9.015625 -5.175781 8.851562 -5.789062 8.53125 -6.34375 C 8.207031 -6.90625 7.765625 -7.347656 7.203125 -7.671875 C 6.648438 -7.992188 6.035156 -8.15625 5.359375 -8.15625 C 4.679688 -8.15625 4.066406 -7.992188 3.515625 -7.671875 C 2.960938 -7.347656 2.519531 -6.90625 2.1875 -6.34375 C 1.851562 -5.789062 1.6875 -5.175781 1.6875 -4.5 C 1.6875 -3.820312 1.851562 -3.203125 2.1875 -2.640625 C 2.519531 -2.085938 2.960938 -1.648438 3.515625 -1.328125 C 4.066406 -1.003906 4.679688 -0.84375 5.359375 -0.84375 Z M 5.359375 -0.84375 "/></g></g></g><g fill="#ffffff" fill-opacity="1"><g transform="translate(141.747305, 264.816722)"><g><path d="M 6.09375 -8.0625 L 2.125 -8.0625 L 2.125 -4.96875 L 5.578125 -4.96875 L 5.578125 -4.03125 L 2.125 -4.03125 L 2.125 0 L 1.171875 0 L 1.171875 -9 L 6.09375 -9 Z M 6.09375 -8.0625 "/></g></g></g><g fill="#ffffff" fill-opacity="1"><g transform="translate(152.127376, 264.816722)"><g><path d="M 6.078125 -9 L 6.078125 -8.046875 L 3.578125 -8.046875 L 3.578125 0 L 2.625 0 L 2.625 -8.046875 L 0.140625 -8.046875 L 0.140625 -9 Z M 6.078125 -9 "/></g></g></g><g fill="#ffffff" fill-opacity="1"><g transform="translate(162.357449, 264.816722)"><g><path d="M 11.234375 -9 L 12.21875 -9 L 9.421875 0 L 8.421875 0 L 6.0625 -7.984375 L 3.75 0 L 2.734375 0 L -0.09375 -9 L 0.9375 -9 L 3.21875 -1.625 L 5.390625 -9 L 6.734375 -9 L 8.921875 -1.609375 Z M 11.234375 -9 "/></g></g></g><g fill="#ffffff" fill-opacity="1"><g transform="translate(178.512506, 264.816722)"><g><path d="M 6.53125 0 L 5.796875 -2.09375 L 1.78125 -2.09375 L 1.046875 0 L 0 0 L 3.25 -9 L 4.3125 -9 L 7.578125 0 Z M 2.09375 -3.015625 L 5.46875 -3.015625 L 3.796875 -7.859375 Z M 2.09375 -3.015625 "/></g></g></g><g fill="#ffffff" fill-opacity="1"><g transform="translate(190.107573, 264.816722)"><g><path d="M 4.734375 -4.109375 L 7.390625 0 L 6.296875 0 L 3.75 -4.0625 L 2.0625 -4.0625 L 2.0625 0 L 1.09375 0 L 1.09375 -9 L 4.3125 -9 C 4.78125 -9 5.203125 -8.882812 5.578125 -8.65625 C 5.960938 -8.4375 6.265625 -8.132812 6.484375 -7.75 C 6.710938 -7.375 6.828125 -6.953125 6.828125 -6.484375 C 6.828125 -6.078125 6.734375 -5.703125 6.546875 -5.359375 C 6.359375 -5.023438 6.109375 -4.75 5.796875 -4.53125 C 5.492188 -4.3125 5.140625 -4.171875 4.734375 -4.109375 Z M 2.0625 -4.984375 L 4.265625 -4.984375 C 4.722656 -4.984375 5.101562 -5.117188 5.40625 -5.390625 C 5.707031 -5.671875 5.859375 -6.046875 5.859375 -6.515625 C 5.859375 -6.960938 5.703125 -7.328125 5.390625 -7.609375 C 5.085938 -7.898438 4.710938 -8.046875 4.265625 -8.046875 L 2.0625 -8.046875 Z M 2.0625 -4.984375 "/></g></g></g><g fill="#ffffff" fill-opacity="1"><g transform="translate(201.657642, 264.816722)"><g><path d="M 6.09375 -8.0625 L 2.125 -8.0625 L 2.125 -4.96875 L 5.578125 -4.96875 L 5.578125 -4.03125 L 2.125 -4.03125 L 2.125 -0.9375 L 6.09375 -0.9375 L 6.09375 0 L 1.171875 0 L 1.171875 -9 L 6.09375 -9 Z M 6.09375 -8.0625 "/></g></g></g><g fill="#ffffff" fill-opacity="1"><g transform="translate(212.66771, 264.816722)"><g/></g></g><g fill="#ffffff" fill-opacity="1"><g transform="translate(220.302773, 264.816722)"><g><path d="M 1.09375 0 L 1.09375 -9 L 3.5625 -9 C 4.175781 -9 4.753906 -8.878906 5.296875 -8.640625 C 5.847656 -8.410156 6.328125 -8.085938 6.734375 -7.671875 C 7.140625 -7.265625 7.460938 -6.789062 7.703125 -6.25 C 7.941406 -5.707031 8.0625 -5.125 8.0625 -4.5 C 8.0625 -3.875 7.941406 -3.289062 7.703125 -2.75 C 7.460938 -2.207031 7.140625 -1.726562 6.734375 -1.3125 C 6.328125 -0.90625 5.847656 -0.582031 5.296875 -0.34375 C 4.753906 -0.113281 4.175781 0 3.5625 0 Z M 2.046875 -0.953125 L 3.546875 -0.953125 C 4.210938 -0.953125 4.8125 -1.109375 5.34375 -1.421875 C 5.882812 -1.734375 6.3125 -2.15625 6.625 -2.6875 C 6.9375 -3.226562 7.09375 -3.832031 7.09375 -4.5 C 7.09375 -5.175781 6.9375 -5.78125 6.625 -6.3125 C 6.3125 -6.84375 5.882812 -7.265625 5.34375 -7.578125 C 4.8125 -7.890625 4.210938 -8.046875 3.546875 -8.046875 L 2.046875 -8.046875 Z M 2.046875 -0.953125 "/></g></g></g><g fill="#ffffff" fill-opacity="1"><g transform="translate(233.112831, 264.816722)"><g><path d="M 6.09375 -8.0625 L 2.125 -8.0625 L 2.125 -4.96875 L 5.578125 -4.96875 L 5.578125 -4.03125 L 2.125 -4.03125 L 2.125 -0.9375 L 6.09375 -0.9375 L 6.09375 0 L 1.171875 0 L 1.171875 -9 L 6.09375 -9 Z M 6.09375 -8.0625 "/></g></g></g><g fill="#ffffff" fill-opacity="1"><g transform="translate(244.122893, 264.816722)"><g><path d="M 6.53125 -9 L 7.578125 -9 L 4.3125 0 L 3.25 0 L 0 -9 L 1.0625 -9 L 3.796875 -1.234375 Z M 6.53125 -9 "/></g></g></g><g fill="#ffffff" fill-opacity="1"><g transform="translate(255.717954, 264.816722)"><g><path d="M 1.421875 0.125 C 1.203125 0.125 1.007812 0.0390625 0.84375 -0.125 C 0.675781 -0.289062 0.59375 -0.484375 0.59375 -0.703125 C 0.59375 -0.929688 0.675781 -1.125 0.84375 -1.28125 C 1.007812 -1.445312 1.203125 -1.53125 1.421875 -1.53125 C 1.648438 -1.53125 1.84375 -1.445312 2 -1.28125 C 2.164062 -1.125 2.25 -0.929688 2.25 -0.703125 C 2.25 -0.484375 2.164062 -0.289062 2 -0.125 C 1.84375 0.0390625 1.648438 0.125 1.421875 0.125 Z M 1.421875 0.125 "/></g></g></g><g fill="#ffffff" fill-opacity="1"><g transform="translate(119.208813, 182.303002)"><g><path d="M -1.4375 10.796875 C 1.675781 10.796875 4.15625 10.421875 6 9.671875 C 7.851562 8.929688 9.222656 7.804688 10.109375 6.296875 C 11.003906 4.785156 11.570312 2.878906 11.8125 0.578125 C 12.050781 -1.722656 12.171875 -4.4375 12.171875 -7.5625 L 12.09375 -21.953125 L 12.09375 -53.78125 C 12.09375 -56.1875 11.335938 -58.0625 9.828125 -59.40625 C 8.316406 -60.75 6.238281 -61.421875 3.59375 -61.421875 L 3.59375 -62.0625 L 35.5 -62.0625 L 35.5 -61.421875 C 32.851562 -61.421875 30.773438 -60.75 29.265625 -59.40625 C 27.753906 -58.0625 27 -56.1875 27 -53.78125 L 27 -12.234375 C 27 -8.679688 26.253906 -5.441406 24.765625 -2.515625 C 23.273438 0.410156 21.222656 2.925781 18.609375 5.03125 C 15.992188 7.144531 12.96875 8.773438 9.53125 9.921875 C 6.101562 11.078125 2.445312 11.65625 -1.4375 11.65625 Z M -1.4375 10.796875 "/></g></g></g><g fill="#ffffff" fill-opacity="1"><g transform="translate(216.689654, 182.303002)"><g><path d="M 3.671875 0 L 3.671875 -20.59375 L 4.3125 -20.59375 L 4.3125 -18.9375 C 4.3125 -16.632812 4.890625 -14.363281 6.046875 -12.125 C 7.203125 -9.894531 8.765625 -7.890625 10.734375 -6.109375 C 12.703125 -4.335938 14.921875 -2.921875 17.390625 -1.859375 C 19.859375 -0.804688 22.414062 -0.28125 25.0625 -0.28125 C 28.5625 -0.28125 31.351562 -0.738281 33.4375 -1.65625 C 35.53125 -2.570312 37.066406 -3.796875 38.046875 -5.328125 C 39.035156 -6.859375 39.550781 -8.515625 39.59375 -10.296875 C 39.644531 -11.929688 39.164062 -13.429688 38.15625 -14.796875 C 37.144531 -16.160156 35.785156 -17.453125 34.078125 -18.671875 C 32.378906 -19.898438 30.507812 -21.078125 28.46875 -22.203125 C 26.4375 -23.335938 24.421875 -24.46875 22.421875 -25.59375 C 20.429688 -26.71875 18.644531 -27.859375 17.0625 -29.015625 C 13.457031 -31.703125 10.671875 -34.148438 8.703125 -36.359375 C 6.742188 -38.566406 5.582031 -40.773438 5.21875 -42.984375 C 4.863281 -45.191406 5.285156 -47.664062 6.484375 -50.40625 C 7.585938 -52.894531 9.179688 -55.050781 11.265625 -56.875 C 13.359375 -58.695312 15.75 -60.097656 18.4375 -61.078125 C 21.125 -62.066406 23.90625 -62.5625 26.78125 -62.5625 C 28.082031 -62.5625 29.351562 -62.453125 30.59375 -62.234375 C 31.84375 -62.023438 33.019531 -61.65625 34.125 -61.125 C 34.75 -60.84375 35.515625 -60.507812 36.421875 -60.125 C 37.335938 -59.738281 38.25 -59.4375 39.15625 -59.21875 C 40.070312 -59 40.851562 -58.945312 41.5 -59.0625 C 42.15625 -59.1875 42.503906 -59.585938 42.546875 -60.265625 L 42.546875 -60.546875 L 43.203125 -60.546875 L 43.203125 -43.484375 L 42.546875 -43.484375 C 42.546875 -43.484375 42.507812 -43.90625 42.4375 -44.75 C 42.375 -45.59375 42.234375 -46.660156 42.015625 -47.953125 C 41.796875 -49.242188 41.429688 -50.632812 40.921875 -52.125 C 40.421875 -53.613281 39.75 -55.03125 38.90625 -56.375 C 38.070312 -57.71875 37.007812 -58.796875 35.71875 -59.609375 C 34.46875 -60.335938 33.082031 -60.90625 31.5625 -61.3125 C 30.050781 -61.71875 28.457031 -61.921875 26.78125 -61.921875 C 24 -61.921875 21.789062 -61.5 20.15625 -60.65625 C 18.53125 -59.820312 17.378906 -58.679688 16.703125 -57.234375 C 16.035156 -55.796875 15.703125 -54.164062 15.703125 -52.34375 C 15.703125 -49.894531 16.539062 -47.722656 18.21875 -45.828125 C 19.894531 -43.929688 22.460938 -41.925781 25.921875 -39.8125 C 28.898438 -37.988281 31.707031 -36.378906 34.34375 -34.984375 C 36.976562 -33.597656 39.304688 -32.160156 41.328125 -30.671875 C 43.347656 -29.179688 44.941406 -27.40625 46.109375 -25.34375 C 47.285156 -23.28125 47.875 -20.664062 47.875 -17.5 C 47.875 -15.4375 47.394531 -13.238281 46.4375 -10.90625 C 45.476562 -8.582031 44.28125 -6.695312 42.84375 -5.25 C 41.300781 -3.71875 39.398438 -2.503906 37.140625 -1.609375 C 34.890625 -0.722656 32.457031 -0.148438 29.84375 0.109375 C 27.226562 0.367188 24.613281 0.34375 22 0.03125 C 19.382812 -0.28125 16.921875 -0.867188 14.609375 -1.734375 C 12.160156 -2.691406 10.238281 -3.289062 8.84375 -3.53125 C 7.457031 -3.769531 6.441406 -3.753906 5.796875 -3.484375 C 5.148438 -3.222656 4.738281 -2.789062 4.5625 -2.1875 C 4.394531 -1.59375 4.3125 -0.890625 4.3125 -0.078125 L 4.3125 0 Z M 3.671875 0 "/></g></g></g><g fill="#ffffff" fill-opacity="1"><g transform="translate(167.801788, 139.266132)"><g><path d="M 22.28125 -21.546875 L 32.46875 -17.453125 L 28.78125 -8.265625 L 37.59375 -4.734375 L 33.796875 4.703125 L 24.984375 1.171875 L 21.234375 10.515625 L 11.046875 6.421875 L 14.796875 -2.921875 L 5.984375 -6.46875 L 9.78125 -15.90625 L 18.59375 -12.359375 Z M 36.5625 -19.203125 L 20.53125 -25.640625 L 16.84375 -16.46875 L 8.03125 -20.015625 L 1.890625 -4.71875 L 3.328125 -1.859375 L 9.921875 0.796875 L 6.953125 8.1875 L 8.359375 11.015625 L 24.15625 17.359375 L 27.921875 8.015625 L 36.734375 11.5625 L 42.765625 -3.484375 L 41.6875 -6.5 L 34.84375 -9.25 L 37.640625 -16.203125 Z M 36.5625 -19.203125 "/></g></g></g><g fill="#ffffff" fill-opacity="1"><g transform="translate(176.201957, 196.767828)"><g><path d="M -7.203125 -23.28125 L 16.34375 -34.09375 L 20.21875 -25.65625 L -3.328125 -14.84375 Z M -2.171875 -12.3125 L 21.375 -23.125 L 25.25 -14.703125 L 1.703125 -3.890625 Z M 17.890625 -38.265625 L -11.390625 -24.828125 L 0.125 0.28125 L 3.1875 1.21875 L 32.21875 -12.09375 L 20.8125 -36.984375 Z M 17.890625 -38.265625 "/></g></g></g></svg>